<?xml version="1.0" encoding="utf-8"?>
<!-- Generator: Adobe Illustrator 26.0.3, SVG Export Plug-In . SVG Version: 6.00 Build 0)  -->
<svg version="1.1" id="Layer_1" xmlns="http://www.w3.org/2000/svg" xmlns:xlink="http://www.w3.org/1999/xlink" x="0px" y="0px"
	 viewBox="0 0 57 58" style="enable-background:new 0 0 57 58;" xml:space="preserve">
<style type="text/css">
	.st0{fill:none;stroke:#B92028;stroke-width:2;stroke-miterlimit:10;}
	.st1{fill:#B92028;}
</style>
<circle class="st0" cx="28.9" cy="29.7" r="26.3"/>
<g>
	<path class="st1" d="M29,29.2c0,0-0.6,0-2.8,0c-2.2,0-2.7,1.7-2.7,2.7c0,1,0,0.8,0,0.8c0,1.2-0.9,2.1-1.9,2.1l-6,0
		c-1.1,0-1.9-0.9-1.9-2.5c0-2.6,0.6-7.8,8.8-7.8c7.1,0,6.6,0,6.6,0s-0.5,0,6.5,0c8,0,8.7,5.2,8.7,7.8c0,1.6-0.9,2.5-1.9,2.5l-6,0
		c-1.1,0-1.9-0.9-1.9-2.1c0,0,0,0.1,0-0.8c0-1-0.5-2.8-2.6-2.8C29.6,29.2,29,29.2,29,29.2z"/>
</g>
</svg>
