<?xml version="1.0" encoding="utf-8"?>
<!-- Generator: Adobe Illustrator 19.2.1, SVG Export Plug-In . SVG Version: 6.00 Build 0)  -->
<svg version="1.1" id="layer" xmlns="http://www.w3.org/2000/svg" xmlns:xlink="http://www.w3.org/1999/xlink" x="0px" y="0px"
	 viewBox="0 0 652 652" style="enable-background:new 0 0 652 652;" xml:space="preserve">
<style type="text/css">
	.st0{fill:#ED1C2B;}
	.st1{fill:#005C97;}
</style>
<path class="st0" d="M116.2,374.8h-93c-0.9,0-1.7-0.8-1.7-1.7v-7.8c0-1,0.8-1.7,1.7-1.7h93c0.9,0,1.7,0.8,1.7,1.7v7.8
	C117.9,374,117.1,374.8,116.2,374.8"/>
<path class="st1" d="M145.2,350.5c-0.4,0.8-1.4,1.8-2.8,1.8h-7.7c-1.8,0-2.8-1.6-2.1-3.1l37.7-80.7c0.4-0.7,1.5-1.3,2.1-1.3h1.2
	c0.6,0,1.7,0.6,2.1,1.3l37.5,80.7c0.7,1.6-0.2,3.1-2.1,3.1h-7.7c-1.5,0-2.3-0.7-2.8-1.8l-27.4-59.6h-0.6L145.2,350.5z M22.3,349.5
	c-0.2,1.7,0.6,2.8,2.3,2.8h8c1,0,2.1-0.8,2.2-1.7l8.9-53.6h0.5l22.3,55.1c0.2,0.7,1.1,1.3,2.1,1.3h2.2c1.1,0,1.8-0.6,2.1-1.3L95,297
	h0.4l9.1,53.6c0.2,0.8,1.2,1.7,2.3,1.7h8c1.7,0,2.6-1.1,2.2-2.8L101.9,269c-0.2-1-1.2-1.8-2.2-1.8h-2c-0.9,0-1.8,0.6-2.1,1.3
	L70,329.8h-0.5l-25.7-61.3c-0.2-0.7-1.4-1.3-2.1-1.3h-2c-1,0-2,0.8-2.2,1.8L22.3,349.5z M249,352.2c0.4,0.7,1.2,1.3,2.1,1.3h1.2
	c1,0,1.7-0.6,2.1-1.3l37.7-80.7c0.7-1.6-0.2-3.1-2.1-3.1h-8.7c-1.1,0-1.8,0.7-2.1,1.3l-27,59.3h-0.7l-27-59.3
	c-0.2-0.6-1.1-1.3-2.1-1.3h-8.7c-1.8,0-2.8,1.6-2.1,3.1L249,352.2z M314.6,350c0,1.2,1,2.3,2.3,2.3h49.2c1.4,0,2.3-1.1,2.3-2.3v-6.6
	c0-1.2-1-2.3-2.3-2.3h-38.9v-25.8h32.8c1.2,0,2.3-1,2.3-2.3v-6.7c0-1.2-1.1-2.3-2.3-2.3h-32.8v-24.5h38.9c1.4,0,2.3-1.1,2.3-2.3
	v-6.7c0-1.2-1-2.3-2.3-2.3H317c-1.4,0-2.3,1.1-2.3,2.3V350z M396.1,350c0,1.2,1.1,2.3,2.3,2.3h7.7c1.4,0,2.3-1.1,2.3-2.3v-58.4h0.1
	l53.4,61.9h3.2c1.2,0,2.3-1,2.3-2.2v-80.7c0-1.2-1.1-2.3-2.3-2.3h-7.9c-1.4,0-2.3,1.1-2.3,2.3v56.7h-0.1l-53.4-60.2h-3.1
	c-1.2,0-2.3,1-2.3,2.2V350z M499.4,350c0,1.2,1.1,2.3,2.3,2.3h8.1c1.2,0,2.3-1.1,2.3-2.3v-79.4c0-1.2-1.1-2.3-2.3-2.3h-8.1
	c-1.2,0-2.3,1.1-2.3,2.3V350z M606.4,348.8c0.9,1.6,0,3.5-2.1,3.5h-9.6c-1,0-1.7-0.6-2-1.1l-16.3-31.8h-18.6V350
	c0,1.2-1.1,2.3-2.3,2.3h-8c-1.4,0-2.3-1.1-2.3-2.3v-79.4c0-1.2,1-2.3,2.3-2.3H581c14.8,0,26.8,11.4,26.8,25.7
	c0,11-7.5,20.1-18.2,24.3L606.4,348.8z M580,309.1c8,0,15-6.6,15-14.9c0-7.8-7-14.3-15-14.3h-21.9v29.1H580z M612.3,274.8v-5.5h2.1
	v-1h-5.3v1h2.1v5.5H612.3z M616.1,274.8v-5.5l1.7,5.5h1l1.7-5.4v5.4h1v-6.5h-1.6l-1.6,5.2l-1.6-5.2h-1.6v6.5H616.1z"/>
</svg>
