<?xml version="1.0" encoding="utf-8"?>
<!-- Generator: Adobe Illustrator 26.0.3, SVG Export Plug-In . SVG Version: 6.00 Build 0)  -->
<svg version="1.1" id="Layer_1" xmlns="http://www.w3.org/2000/svg" xmlns:xlink="http://www.w3.org/1999/xlink" x="0px" y="0px"
	 viewBox="0 0 57 58" style="enable-background:new 0 0 57 58;" xml:space="preserve">
<style type="text/css">
	.st0{fill:#334048;}
	.st1{fill:#FFFFFF;stroke:#FFFFFF;stroke-width:0.25;stroke-miterlimit:10;}
</style>
<circle class="st0" cx="28.7" cy="29.2" r="26.3"/>
<g>
	<path class="st1" d="M35.5,24.1v4.8c0,4-3.3,7.2-7.2,7.2S21,32.9,21,28.9v-4.8h-1v4.8c0,4.4,3.4,7.9,7.7,8.2v5.3h-5.3v1h11.6v-1
		h-5.3v-5.3c4.3-0.3,7.7-3.8,7.7-8.2v-4.8H35.5z"/>
	<path class="st1" d="M28.3,33.3c2.4,0,4.3-1.9,4.3-4.3V18.8c0-2.4-1.9-4.3-4.3-4.3s-4.3,1.9-4.3,4.3v10.1
		C23.9,31.3,25.9,33.3,28.3,33.3z M24.9,18.8c0-1.9,1.5-3.4,3.4-3.4c1.9,0,3.4,1.5,3.4,3.4v10.1c0,1.9-1.5,3.4-3.4,3.4
		c-1.9,0-3.4-1.5-3.4-3.4V18.8z"/>
</g>
</svg>
